<svg width="82" height="16" fill="currentColor" viewBox="0 0 82 16" xmlns="http://www.w3.org/2000/svg">
    <path d="M13.0056 3.91301C13.2564 4.58979 12.6942 5.24209 11.9725 5.24209C11.4039 5.24209 10.9399 4.82207 10.7006 4.30632C10.6368 4.16868 10.5646 4.03747 10.4842 3.91268C10.2374 3.52997 9.93529 3.20518 9.57776 2.93829C9.22023 2.6714 8.8199 2.46998 8.37677 2.33401C7.93867 2.19805 7.47287 2.13007 6.97938 2.13007C6.08807 2.13007 5.28993 2.35416 4.58494 2.80233C3.88499 3.2505 3.33107 3.90765 2.92318 4.77377C2.52033 5.6399 2.31891 6.69738 2.31891 7.94622C2.31891 9.20513 2.52033 10.2676 2.92318 11.1338C3.33107 11.9999 3.8875 12.6545 4.59249 13.0977C5.29748 13.5408 6.09059 13.7624 6.97183 13.7624C7.46028 13.7624 7.92356 13.6969 8.36166 13.566C8.80479 13.43 9.20513 13.2311 9.56266 12.9693C9.92019 12.7074 10.2223 12.3876 10.4691 12.01C10.5509 11.8855 10.6246 11.7552 10.6899 11.6191C10.9344 11.1098 11.399 10.697 11.9639 10.6988C12.689 10.7011 13.248 11.3601 12.9816 12.0345C12.8768 12.2997 12.7544 12.5559 12.6142 12.8031C12.2567 13.4376 11.796 13.9865 11.232 14.4497C10.673 14.908 10.0335 15.263 9.31339 15.5148C8.5933 15.7665 7.80774 15.8924 6.95672 15.8924C5.61724 15.8924 4.4238 15.5752 3.37639 14.9407C2.32898 14.3012 1.50313 13.3872 0.898859 12.1988C0.29962 11.0104 0 9.59287 0 7.94622C0 6.29453 0.302138 4.87701 0.906413 3.69363C1.51069 2.50522 2.33653 1.59378 3.38394 0.959287C4.43135 0.319762 5.62228 0 6.95672 0C7.77753 0 8.54294 0.118337 9.25296 0.355012C9.96802 0.586651 10.6101 0.929073 11.1791 1.38228C11.7481 1.83045 12.2189 2.37933 12.5916 3.02893C12.752 3.30636 12.89 3.60106 13.0056 3.91301Z" />
    <path d="M27.3089 16C26.2029 16 25.189 15.8227 24.2673 15.4682C23.3455 15.0996 22.5443 14.5749 21.8637 13.8942C21.183 13.1994 20.6513 12.3698 20.2684 11.4056C19.8997 10.4271 19.7154 9.33525 19.7154 8.12992C19.7154 6.92459 19.8997 5.8398 20.2684 4.87553C20.6513 3.89709 21.183 3.06754 21.8637 2.38689C22.5443 1.69205 23.3455 1.16738 24.2673 0.81287C25.189 0.444182 26.2029 0.259838 27.3089 0.259838C28.415 0.259838 29.4289 0.444182 30.3506 0.81287C31.2723 1.16738 32.0735 1.69205 32.7542 2.38689C33.4348 3.06754 33.9595 3.89709 34.3282 4.87553C34.7111 5.8398 34.9025 6.92459 34.9025 8.12992C34.9025 9.33525 34.7111 10.4271 34.3282 11.4056C33.9595 12.3698 33.4348 13.1994 32.7542 13.8942C32.0735 14.5749 31.2723 15.0996 30.3506 15.4682C29.4289 15.8227 28.415 16 27.3089 16ZM27.3089 14.5323C28.0321 14.5323 28.6844 14.3976 29.2658 14.1282C29.8614 13.8446 30.3648 13.4334 30.776 12.8945C31.2014 12.3557 31.5276 11.6892 31.7545 10.8951C31.9814 10.0868 32.0948 9.16508 32.0948 8.12992C32.0948 7.09476 31.9814 6.18012 31.7545 5.38603C31.5276 4.57775 31.2014 3.90418 30.776 3.36533C30.3648 2.82648 29.8614 2.42234 29.2658 2.15291C28.6844 1.86931 28.0321 1.7275 27.3089 1.7275C26.5857 1.7275 25.9264 1.86931 25.3308 2.15291C24.7494 2.42234 24.246 2.82648 23.8206 3.36533C23.4093 3.90418 23.0903 4.57775 22.8634 5.38603C22.6365 6.18012 22.5231 7.09476 22.5231 8.12992C22.5231 9.16508 22.6365 10.0868 22.8634 10.8951C23.0903 11.6892 23.4093 12.3557 23.8206 12.8945C24.246 13.4334 24.7494 13.8446 25.3308 14.1282C25.9264 14.3976 26.5857 14.5323 27.3089 14.5323Z" />
    <path d="M46.8759 15.6809H43.1974C42.4632 15.6809 41.868 15.0857 41.868 14.3515V1.5409C41.868 0.806693 42.4632 0.211496 43.1974 0.211496H47.0345C48.5502 0.211496 49.852 0.521188 50.9396 1.14057C52.0273 1.75492 52.8607 2.63867 53.4398 3.79183C54.024 4.93995 54.316 6.31719 54.316 7.92356C54.316 9.53496 54.0215 10.9198 53.4323 12.078C52.8481 13.2361 52.0022 14.1275 50.8943 14.7519C49.7865 15.3713 48.447 15.6809 46.8759 15.6809ZM44.202 12.3121C44.202 13.0463 44.7972 13.6415 45.5314 13.6415H46.7475C47.9258 13.6415 48.9053 13.4199 49.6858 12.9768C50.4663 12.5286 51.0504 11.8816 51.4382 11.0356C51.8259 10.1846 52.0198 9.14722 52.0198 7.92356C52.0198 6.70997 51.8259 5.68019 51.4382 4.8342C51.0555 3.98822 50.4839 3.34617 49.7235 2.90807C48.9632 2.46998 48.019 2.25093 46.891 2.25093H45.5314C44.7972 2.25093 44.202 2.84612 44.202 3.58033V12.3121Z" />
    <path d="M62.8019 15.6809C62.0677 15.6809 61.4725 15.0857 61.4725 14.3515V1.5409C61.4725 0.806693 62.0677 0.211496 62.8019 0.211496H70.1665C70.7214 0.211496 71.1712 0.661275 71.1712 1.2161C71.1712 1.77093 70.7214 2.22071 70.1665 2.22071H65.136C64.4017 2.22071 63.8066 2.81591 63.8066 3.55012V5.60465C63.8066 6.33886 64.4017 6.93406 65.136 6.93406H69.6642C70.217 6.93406 70.6651 7.38215 70.6651 7.93489C70.6651 8.48763 70.217 8.93572 69.6642 8.93572H65.136C64.4017 8.93572 63.8066 9.53092 63.8066 10.2651V12.3423C63.8066 13.0765 64.4017 13.6717 65.136 13.6717H70.2572C70.812 13.6717 71.2618 14.1215 71.2618 14.6763C71.2618 15.2312 70.812 15.6809 70.2572 15.6809H62.8019Z" />
    <path d="M79.8497 15.8245C79.4368 15.8245 79.0818 15.6784 78.7847 15.3864C78.4875 15.0893 78.339 14.7317 78.339 14.3138C78.339 13.9008 78.4875 13.5484 78.7847 13.2563C79.0818 12.9592 79.4368 12.8106 79.8497 12.8106C80.2626 12.8106 80.6176 12.9592 80.9147 13.2563C81.2118 13.5484 81.3604 13.9008 81.3604 14.3138C81.3604 14.5907 81.2899 14.845 81.1489 15.0767C81.0129 15.3033 80.8316 15.4846 80.605 15.6205C80.3784 15.7565 80.1266 15.8245 79.8497 15.8245Z" />
</svg>